<?xml version="1.0"?>
<svg xmlns="http://www.w3.org/2000/svg" viewBox="0 0 512 512" width="512" height="512"><g id="outline"><path d="M183.1,182.488a8,8,0,0,0-15.719,3.024A33.826,33.826,0,0,1,168,192c0,13.008-7.328,24-16,24a10.679,10.679,0,0,1-4.586-1.055,8,8,0,0,0-6.828,14.469A26.564,26.564,0,0,0,152,232c17.648,0,32-17.945,32-40A50.837,50.837,0,0,0,183.1,182.488Z"/><path d="M152,168a10.679,10.679,0,0,1,4.586,1.055,8,8,0,0,0,6.828-14.469A26.564,26.564,0,0,0,152,152a8,8,0,0,0,0,16Z"/><path d="M136,192a32.453,32.453,0,0,1,2.555-12.82,8,8,0,0,0-14.688-6.36A48.628,48.628,0,0,0,120,192a50.837,50.837,0,0,0,.9,9.512A8.012,8.012,0,0,0,128.75,208a8.132,8.132,0,0,0,1.523-.145,8.008,8.008,0,0,0,6.344-9.367A33.826,33.826,0,0,1,136,192Z"/><path d="M112,320a50.837,50.837,0,0,0-.9-9.512,8,8,0,0,0-15.719,3.024A33.826,33.826,0,0,1,96,320c0,13.008-7.328,24-16,24a10.679,10.679,0,0,1-4.586-1.055,8,8,0,0,0-6.828,14.469A26.564,26.564,0,0,0,80,360C97.648,360,112,342.055,112,320Z"/><path d="M80,296a10.679,10.679,0,0,1,4.586,1.055,8,8,0,0,0,6.828-14.469A26.564,26.564,0,0,0,80,280a8,8,0,0,0,0,16Z"/><path d="M64,320a32.453,32.453,0,0,1,2.555-12.82,8,8,0,0,0-14.688-6.36A48.628,48.628,0,0,0,48,320a50.837,50.837,0,0,0,.9,9.512A8.012,8.012,0,0,0,56.75,336a8.132,8.132,0,0,0,1.523-.145,8.008,8.008,0,0,0,6.344-9.367A33.826,33.826,0,0,1,64,320Z"/><path d="M240,320c0,13.008-7.328,24-16,24a10.679,10.679,0,0,1-4.586-1.055,8,8,0,0,0-6.828,14.469A26.564,26.564,0,0,0,224,360c17.648,0,32-17.945,32-40a50.837,50.837,0,0,0-.9-9.512,8,8,0,0,0-15.719,3.024A33.826,33.826,0,0,1,240,320Z"/><path d="M224,296a10.679,10.679,0,0,1,4.586,1.055,8,8,0,0,0,6.828-14.469A26.564,26.564,0,0,0,224,280a8,8,0,0,0,0,16Z"/><path d="M192.9,329.512A8.012,8.012,0,0,0,200.75,336a8.132,8.132,0,0,0,1.523-.145,8.008,8.008,0,0,0,6.344-9.367A33.826,33.826,0,0,1,208,320a32.453,32.453,0,0,1,2.555-12.82,8,8,0,0,0-14.688-6.36A48.628,48.628,0,0,0,192,320,50.837,50.837,0,0,0,192.9,329.512Z"/><path d="M432,248H408.137C422.67,234.79,432,214.607,432,192c0-39.7-28.711-72-64-72H152c-35.289,0-64,32.3-64,72,0,22.607,9.33,42.79,23.863,56H80c-35.289,0-64,32.3-64,72s28.711,72,64,72H432c35.289,0,64-32.3,64-72S467.289,248,432,248ZM368,136c13.042,0,24.87,6.118,33.529,16H320a8,8,0,0,0,0,16h91.3a62.507,62.507,0,0,1,4.15,16H384a8,8,0,0,0,0,16h31.453a62.507,62.507,0,0,1-4.15,16H320a8,8,0,0,0,0,16h81.529c-8.659,9.882-20.487,16-33.529,16H192.137a70.151,70.151,0,0,0,13.04-16H240a8,8,0,0,0,0-16H212.266a78.931,78.931,0,0,0,3.315-16H304a8,8,0,0,0,0-16H215.581a78.931,78.931,0,0,0-3.315-16H240a8,8,0,0,0,0-16H205.177a70.151,70.151,0,0,0-13.04-16ZM272,320c0,30.879-21.531,56-48,56s-48-25.121-48-56,21.531-56,48-56S272,289.121,272,320Zm-128.419-8a78.931,78.931,0,0,0-3.315-16h23.468a78.931,78.931,0,0,0-3.315,16ZM104,192c0-30.879,21.531-56,48-56s48,25.121,48,56-21.531,56-48,56S104,222.879,104,192Zm79.863,72a70.151,70.151,0,0,0-13.04,16H133.177a70.151,70.151,0,0,0-13.04-16ZM32,320c0-30.879,21.531-56,48-56s48,25.121,48,56-21.531,56-48,56S32,350.879,32,320Zm88.137,56a70.151,70.151,0,0,0,13.04-16H152a8,8,0,0,0,0-16H140.266a78.931,78.931,0,0,0,3.315-16h16.838c1.912,19.336,10.651,36.372,23.444,48ZM432,376H264.137a70.151,70.151,0,0,0,13.04-16H328a8,8,0,0,0,0-16H284.266a78.931,78.931,0,0,0,3.315-16H360a8,8,0,0,0,0-16H287.581a78.931,78.931,0,0,0-3.315-16H320a8,8,0,0,0,0-16H277.177a70.151,70.151,0,0,0-13.04-16H432c13.042,0,24.87,6.118,33.529,16H400a8,8,0,0,0,0,16h75.3a62.507,62.507,0,0,1,4.15,16H440a8,8,0,0,0,0,16h39.453a62.507,62.507,0,0,1-4.15,16H408a8,8,0,0,0,0,16h57.529C456.87,369.882,445.042,376,432,376Z"/><path d="M288,216H272a8,8,0,0,0,0,16h16a8,8,0,0,0,0-16Z"/><path d="M272,168h16a8,8,0,0,0,0-16H272a8,8,0,0,0,0,16Z"/><path d="M336,200h16a8,8,0,0,0,0-16H336a8,8,0,0,0,0,16Z"/><path d="M376,344H360a8,8,0,0,0,0,16h16a8,8,0,0,0,0-16Z"/><path d="M376,288a8,8,0,0,0-8-8H352a8,8,0,0,0,0,16h16A8,8,0,0,0,376,288Z"/><path d="M416,320a8,8,0,0,0-8-8H392a8,8,0,0,0,0,16h16A8,8,0,0,0,416,320Z"/><rect x="248" y="88" width="16" height="16"/><rect x="216" y="88" width="16" height="16"/><rect x="280" y="88" width="40" height="16"/></g></svg>
