<?xml version="1.0"?>
<svg xmlns="http://www.w3.org/2000/svg" viewBox="0 0 512 512" width="512" height="512"><g id="solid"><path d="M224,264c-26.469,0-48,25.121-48,56s21.531,56,48,56,48-25.121,48-56S250.469,264,224,264Zm0,16a26.564,26.564,0,0,1,11.414,2.586,8,8,0,0,1-6.828,14.469A10.679,10.679,0,0,0,224,296a8,8,0,0,1,0-16Zm-21.727,55.855a8.132,8.132,0,0,1-1.523.145,8.012,8.012,0,0,1-7.852-6.488A50.837,50.837,0,0,1,192,320a48.628,48.628,0,0,1,3.867-19.18,8,8,0,0,1,14.688,6.36A32.453,32.453,0,0,0,208,320a33.826,33.826,0,0,0,.617,6.488A8.008,8.008,0,0,1,202.273,335.855ZM224,360a26.564,26.564,0,0,1-11.414-2.586,8,8,0,0,1,6.828-14.469A10.679,10.679,0,0,0,224,344c8.672,0,16-10.992,16-24a33.826,33.826,0,0,0-.617-6.488,8,8,0,0,1,15.719-3.024A50.837,50.837,0,0,1,256,320C256,342.055,241.648,360,224,360Z"/><path d="M183.863,264H120.137a70.151,70.151,0,0,1,13.04,16h37.646A70.151,70.151,0,0,1,183.863,264Z"/><path d="M143.581,328a78.931,78.931,0,0,1-3.315,16H152a8,8,0,0,1,0,16H133.177a70.151,70.151,0,0,1-13.04,16h63.726c-12.793-11.628-21.532-28.664-23.444-48Z"/><path d="M80,264c-26.469,0-48,25.121-48,56s21.531,56,48,56,48-25.121,48-56S106.469,264,80,264Zm0,16a26.564,26.564,0,0,1,11.414,2.586,8,8,0,0,1-6.828,14.469A10.679,10.679,0,0,0,80,296a8,8,0,0,1,0-16ZM58.273,335.855A8.132,8.132,0,0,1,56.75,336a8.012,8.012,0,0,1-7.852-6.488A50.837,50.837,0,0,1,48,320a48.628,48.628,0,0,1,3.867-19.18,8,8,0,0,1,14.688,6.36A32.453,32.453,0,0,0,64,320a33.826,33.826,0,0,0,.617,6.488A8.008,8.008,0,0,1,58.273,335.855ZM80,360a26.564,26.564,0,0,1-11.414-2.586,8,8,0,0,1,6.828-14.469A10.679,10.679,0,0,0,80,344c8.672,0,16-10.992,16-24a33.826,33.826,0,0,0-.617-6.488,8,8,0,0,1,15.719-3.024A50.837,50.837,0,0,1,112,320C112,342.055,97.648,360,80,360Z"/><path d="M160.419,312a78.931,78.931,0,0,1,3.315-16H140.266a78.931,78.931,0,0,1,3.315,16Z"/><path d="M432,320a8,8,0,0,1,8-8h39.453a62.507,62.507,0,0,0-4.15-16H400a8,8,0,0,1,0-16h65.529c-8.659-9.882-20.487-16-33.529-16H264.137a70.151,70.151,0,0,1,13.04,16H320a8,8,0,0,1,0,16H284.266a78.931,78.931,0,0,1,3.315,16H360a8,8,0,0,1,0,16H287.581a78.931,78.931,0,0,1-3.315,16H328a8,8,0,0,1,0,16H277.177a70.151,70.151,0,0,1-13.04,16H432c13.042,0,24.87-6.118,33.529-16H408a8,8,0,0,1,0-16h67.3a62.507,62.507,0,0,0,4.15-16H440A8,8,0,0,1,432,320Zm-80-24a8,8,0,0,1,0-16h16a8,8,0,0,1,0,16Zm24,64H360a8,8,0,0,1,0-16h16a8,8,0,0,1,0,16Zm32-32H392a8,8,0,0,1,0-16h16a8,8,0,0,1,0,16Z"/><path d="M152,248c26.469,0,48-25.121,48-56s-21.531-56-48-56-48,25.121-48,56S125.531,248,152,248Zm21.727-71.855a7.979,7.979,0,0,1,9.375,6.343A50.837,50.837,0,0,1,184,192c0,22.055-14.352,40-32,40a26.564,26.564,0,0,1-11.414-2.586,8,8,0,0,1,6.828-14.469A10.679,10.679,0,0,0,152,216c8.672,0,16-10.992,16-24a33.826,33.826,0,0,0-.617-6.488A8.008,8.008,0,0,1,173.727,176.145ZM152,152a26.564,26.564,0,0,1,11.414,2.586,8,8,0,0,1-6.828,14.469A10.679,10.679,0,0,0,152,168a8,8,0,0,1,0-16Zm-32,40a48.628,48.628,0,0,1,3.867-19.18,8,8,0,0,1,14.688,6.36A32.453,32.453,0,0,0,136,192a33.826,33.826,0,0,0,.617,6.488,8.008,8.008,0,0,1-6.344,9.367,8.132,8.132,0,0,1-1.523.145,8.012,8.012,0,0,1-7.852-6.488A50.837,50.837,0,0,1,120,192Z"/><path d="M240,152a8,8,0,0,1,0,16H212.266a78.931,78.931,0,0,1,3.315,16H304a8,8,0,0,1,0,16H215.581a78.931,78.931,0,0,1-3.315,16H240a8,8,0,0,1,0,16H205.177a70.151,70.151,0,0,1-13.04,16H368c13.042,0,24.87-6.118,33.529-16H320a8,8,0,0,1,0-16h91.3a62.507,62.507,0,0,0,4.15-16H384a8,8,0,0,1,0-16h31.453a62.507,62.507,0,0,0-4.15-16H320a8,8,0,0,1,0-16h81.529c-8.659-9.882-20.487-16-33.529-16H192.137a70.151,70.151,0,0,1,13.04,16Zm48,80H272a8,8,0,0,1,0-16h16a8,8,0,0,1,0,16Zm48-48h16a8,8,0,0,1,0,16H336a8,8,0,0,1,0-16Zm-64-32h16a8,8,0,0,1,0,16H272a8,8,0,0,1,0-16Z"/><rect x="248" y="88" width="16" height="16"/><rect x="216" y="88" width="16" height="16"/><rect x="280" y="88" width="40" height="16"/></g></svg>
