<svg xmlns="http://www.w3.org/2000/svg" viewBox="0 0 512 512" width="512" height="512"><path d="M224 264c-26.469 0-48 25.121-48 56s21.531 56 48 56 48-25.121 48-56-21.531-56-48-56zm0 16a26.564 26.564 0 0111.414 2.586 8 8 0 01-6.828 14.469A10.679 10.679 0 00224 296a8 8 0 010-16zm-21.727 55.855a8.132 8.132 0 01-1.523.145 8.012 8.012 0 01-7.852-6.488A50.837 50.837 0 01192 320a48.628 48.628 0 013.867-19.18 8 8 0 0114.688 6.36A32.453 32.453 0 00208 320a33.826 33.826 0 00.617 6.488 8.008 8.008 0 01-6.344 9.367zM224 360a26.564 26.564 0 01-11.414-2.586 8 8 0 016.828-14.469A10.679 10.679 0 00224 344c8.672 0 16-10.992 16-24a33.826 33.826 0 00-.617-6.488 8 8 0 0115.719-3.024A50.837 50.837 0 01256 320c0 22.055-14.352 40-32 40zm-40.137-96h-63.726a70.151 70.151 0 0113.04 16h37.646a70.151 70.151 0 0113.04-16zm-40.282 64a78.931 78.931 0 01-3.315 16H152a8 8 0 010 16h-18.823a70.151 70.151 0 01-13.04 16h63.726c-12.793-11.628-21.532-28.664-23.444-48zM80 264c-26.469 0-48 25.121-48 56s21.531 56 48 56 48-25.121 48-56-21.531-56-48-56zm0 16a26.564 26.564 0 0111.414 2.586 8 8 0 01-6.828 14.469A10.679 10.679 0 0080 296a8 8 0 010-16zm-21.727 55.855a8.132 8.132 0 01-1.523.145 8.012 8.012 0 01-7.852-6.488A50.837 50.837 0 0148 320a48.628 48.628 0 013.867-19.18 8 8 0 0114.688 6.36A32.453 32.453 0 0064 320a33.826 33.826 0 00.617 6.488 8.008 8.008 0 01-6.344 9.367zM80 360a26.564 26.564 0 01-11.414-2.586 8 8 0 016.828-14.469A10.679 10.679 0 0080 344c8.672 0 16-10.992 16-24a33.826 33.826 0 00-.617-6.488 8 8 0 0115.719-3.024A50.837 50.837 0 01112 320c0 22.055-14.352 40-32 40zm80.419-48a78.931 78.931 0 013.315-16h-23.468a78.931 78.931 0 013.315 16z"/><path d="M432 320a8 8 0 018-8h39.453a62.507 62.507 0 00-4.15-16H400a8 8 0 010-16h65.529c-8.659-9.882-20.487-16-33.529-16H264.137a70.151 70.151 0 0113.04 16H320a8 8 0 010 16h-35.734a78.931 78.931 0 013.315 16H360a8 8 0 010 16h-72.419a78.931 78.931 0 01-3.315 16H328a8 8 0 010 16h-50.823a70.151 70.151 0 01-13.04 16H432c13.042 0 24.87-6.118 33.529-16H408a8 8 0 010-16h67.3a62.507 62.507 0 004.15-16H440a8 8 0 01-8-8zm-80-24a8 8 0 010-16h16a8 8 0 010 16zm24 64h-16a8 8 0 010-16h16a8 8 0 010 16zm32-32h-16a8 8 0 010-16h16a8 8 0 010 16zm-256-80c26.469 0 48-25.121 48-56s-21.531-56-48-56-48 25.121-48 56 21.531 56 48 56zm21.727-71.855a7.979 7.979 0 019.375 6.343A50.837 50.837 0 01184 192c0 22.055-14.352 40-32 40a26.564 26.564 0 01-11.414-2.586 8 8 0 016.828-14.469A10.679 10.679 0 00152 216c8.672 0 16-10.992 16-24a33.826 33.826 0 00-.617-6.488 8.008 8.008 0 016.344-9.367zM152 152a26.564 26.564 0 0111.414 2.586 8 8 0 01-6.828 14.469A10.679 10.679 0 00152 168a8 8 0 010-16zm-32 40a48.628 48.628 0 013.867-19.18 8 8 0 0114.688 6.36A32.453 32.453 0 00136 192a33.826 33.826 0 00.617 6.488 8.008 8.008 0 01-6.344 9.367 8.132 8.132 0 01-1.523.145 8.012 8.012 0 01-7.852-6.488A50.837 50.837 0 01120 192z"/><path d="M240 152a8 8 0 010 16h-27.734a78.931 78.931 0 013.315 16H304a8 8 0 010 16h-88.419a78.931 78.931 0 01-3.315 16H240a8 8 0 010 16h-34.823a70.151 70.151 0 01-13.04 16H368c13.042 0 24.87-6.118 33.529-16H320a8 8 0 010-16h91.3a62.507 62.507 0 004.15-16H384a8 8 0 010-16h31.453a62.507 62.507 0 00-4.15-16H320a8 8 0 010-16h81.529c-8.659-9.882-20.487-16-33.529-16H192.137a70.151 70.151 0 0113.04 16zm48 80h-16a8 8 0 010-16h16a8 8 0 010 16zm48-48h16a8 8 0 010 16h-16a8 8 0 010-16zm-64-32h16a8 8 0 010 16h-16a8 8 0 010-16zm-24-64h16v16h-16zm-32 0h16v16h-16zm64 0h40v16h-40z"/></svg>