<svg xmlns="http://www.w3.org/2000/svg" viewBox="0 0 512 512"><path d="M145.067 162.133c5.12 0 8.533-3.413 8.533-8.533s3.413-8.533 8.533-8.533 8.533-3.413 8.533-8.533-3.413-8.534-8.533-8.534c-14.507 0-25.6 11.093-25.6 25.6 0 5.12 3.414 8.533 8.534 8.533zm-59.734 102.4c5.12 0 8.533-3.413 8.533-8.533 0-5.12 3.413-8.533 8.533-8.533s8.533-3.413 8.533-8.533-3.413-8.533-8.533-8.533c-14.507 0-25.6 11.093-25.6 25.6.001 5.119 3.414 8.532 8.534 8.532zm-17.066 76.8c0-5.12-3.413-8.533-8.533-8.533-14.507 0-25.6 11.093-25.6 25.6 0 5.12 3.413 8.533 8.533 8.533S51.2 363.52 51.2 358.4c0-5.12 3.413-8.533 8.533-8.533s8.534-3.414 8.534-8.534zm93.866-8.533c-14.507 0-25.6 11.093-25.6 25.6 0 5.12 3.413 8.533 8.533 8.533 5.12 0 8.533-3.413 8.533-8.533 0-5.12 3.413-8.533 8.533-8.533s8.533-3.413 8.533-8.533-3.412-8.534-8.532-8.534zm128-153.6h51.2c5.12 0 8.533-3.413 8.533-8.533 0-5.12-3.413-8.533-8.533-8.533h-51.2c-5.12 0-8.533 3.413-8.533 8.533 0 5.12 3.413 8.533 8.533 8.533zm8.534-34.133h8.533c5.12 0 8.533-3.413 8.533-8.533S312.32 128 307.2 128h-8.533c-5.12 0-8.533 3.413-8.533 8.533s3.413 8.534 8.533 8.534zM187.733 264.533c5.12 0 8.533-3.413 8.533-8.533 0-5.12 3.413-8.533 8.533-8.533 5.12 0 8.533-3.413 8.533-8.533s-3.413-8.533-8.533-8.533c-14.507 0-25.6 11.093-25.6 25.6.001 5.119 3.414 8.532 8.534 8.532zM332.8 281.6H384c5.12 0 8.533-3.413 8.533-8.533s-3.413-8.533-8.533-8.533h-51.2c-5.12 0-8.533 3.413-8.533 8.533s3.413 8.533 8.533 8.533zm8.533-34.133h8.533c5.12 0 8.533-3.413 8.533-8.533s-3.413-8.533-8.533-8.533h-8.533c-5.12 0-8.533 3.413-8.533 8.533s3.413 8.533 8.533 8.533zm-76.8 85.333c-14.507 0-25.6 11.093-25.6 25.6 0 5.12 3.413 8.533 8.533 8.533S256 363.52 256 358.4c0-5.12 3.413-8.533 8.533-8.533s8.533-3.413 8.533-8.533-3.413-8.534-8.533-8.534zm179.2 34.133h-51.2c-5.12 0-8.533 3.413-8.533 8.533s3.413 8.533 8.533 8.533h51.2c5.12 0 8.533-3.413 8.533-8.533s-3.413-8.533-8.533-8.533zm-42.666-17.066h8.533c5.12 0 8.533-3.413 8.533-8.533s-3.413-8.533-8.533-8.533h-8.533c-5.12 0-8.533 3.413-8.533 8.533s3.413 8.533 8.533 8.533z"/><path d="M509.412 376.013A60.723 60.723 0 00512 358.4a60.74 60.74 0 00-2.582-17.59c-.095-2.012-.723-3.743-1.794-5.072-8.83-21.859-30.126-37.072-55.358-37.072h-17.722a59.157 59.157 0 0013.616-20.693c.864-1.211 1.416-2.688 1.518-4.36A60.723 60.723 0 00452.266 256a60.74 60.74 0 00-2.582-17.59c-.095-2.012-.723-3.743-1.794-5.071-8.83-21.859-30.126-37.072-55.358-37.072h-.656a59.152 59.152 0 0013.616-20.694c.863-1.211 1.416-2.688 1.518-4.36a60.723 60.723 0 002.589-17.613 60.74 60.74 0 00-2.582-17.59c-.095-2.012-.723-3.743-1.793-5.071-8.83-21.859-30.126-37.072-55.358-37.072H162.133c-33.28 0-59.733 26.453-59.733 59.733 0 19.245 8.858 36.195 22.755 47.079-6.997-2.84-14.672-4.412-22.755-4.412-33.28 0-59.733 26.453-59.733 59.733 0 16.818 6.762 31.885 17.74 42.683-.225-.002-.447-.017-.673-.017C26.453 298.667 0 325.12 0 358.4s26.453 59.733 59.733 59.733h392.533c25.496 0 46.969-15.534 55.627-37.76.864-1.211 1.417-2.688 1.519-4.36zm-116.879-162.68c14.218 0 26.621 6.649 34.336 17.067H384c-5.12 0-8.533 3.413-8.533 8.533s3.413 8.533 8.533 8.533h50.375a44.26 44.26 0 01.825 8.533c0 2.93-.286 5.782-.825 8.533h-16.241c-5.12 0-8.533 3.413-8.533 8.533s3.413 8.533 8.533 8.533h8.736c-7.715 10.418-20.118 17.067-34.336 17.067H246.812a59.109 59.109 0 0012.071-17.067h31.251c5.12 0 8.533-3.413 8.533-8.533s-3.413-8.533-8.533-8.533h-26.202c.11-.785.216-1.572.296-2.369.013-.134.018-.272.031-.406.081-.875.154-1.754.198-2.645a61.771 61.771 0 000-6.226 60.231 60.231 0 00-.198-2.645c-.013-.135-.017-.272-.031-.406a60.55 60.55 0 00-.296-2.369H307.2c5.12 0 8.533-3.413 8.533-8.533s-3.413-8.533-8.533-8.533h-48.318a59.174 59.174 0 00-12.071-17.067h145.722zm-128 187.734c-23.893 0-42.667-18.773-42.667-42.667 0-23.893 18.773-42.667 42.667-42.667 23.893 0 42.667 18.773 42.667 42.667 0 23.893-18.773 42.667-42.667 42.667zm-102.4 0c-23.893 0-42.667-18.773-42.667-42.667 0-23.893 18.773-42.667 42.667-42.667 23.893 0 42.667 18.773 42.667 42.667 0 23.893-18.773 42.667-42.667 42.667zM204.8 213.333c23.893 0 42.667 18.773 42.667 42.667s-18.773 42.667-42.667 42.667c-23.893 0-42.667-18.773-42.667-42.667s18.774-42.667 42.667-42.667zm0 102.4h17.722a59.162 59.162 0 00-9.189 11.646 59.158 59.158 0 00-9.207-11.663c.226.003.448.017.674.017zm-41.993-17.05c-.225-.002-.447-.017-.673-.017-8.083 0-15.758 1.572-22.755 4.412a59.182 59.182 0 0014.222-16.058 59.058 59.058 0 009.206 11.663zm187.06-187.75c14.218 0 26.621 6.649 34.336 17.067h-42.87c-5.12 0-8.533 3.413-8.533 8.533s3.413 8.533 8.533 8.533h50.375c.54 2.751.825 5.603.825 8.533s-.286 5.782-.825 8.533h-16.241c-5.12 0-8.533 3.413-8.533 8.533 0 5.12 3.413 8.533 8.533 8.533h8.736c-7.715 10.418-20.118 17.067-34.336 17.067H204.144a59.109 59.109 0 0012.071-17.067h31.251c5.12 0 8.533-3.413 8.533-8.533 0-5.12-3.413-8.533-8.533-8.533h-26.202c.11-.785.216-1.572.296-2.369.013-.134.018-.272.031-.406.081-.875.154-1.754.198-2.645a61.771 61.771 0 000-6.226 60.231 60.231 0 00-.198-2.645c-.013-.135-.017-.272-.031-.406a60.55 60.55 0 00-.296-2.369h43.269c5.12 0 8.533-3.413 8.533-8.533S269.653 128 264.533 128h-48.318a59.174 59.174 0 00-12.071-17.067h145.723zm-230.4 42.667c0-23.893 18.773-42.667 42.667-42.667 23.893 0 42.667 18.773 42.667 42.667 0 23.893-18.773 42.667-42.667 42.667-23.894 0-42.667-18.774-42.667-42.667zm42.666 59.733h.656a59.162 59.162 0 00-9.189 11.646 59.134 59.134 0 00-14.222-16.058c6.997 2.84 14.672 4.412 22.755 4.412zM59.733 256c0-23.893 18.773-42.667 42.667-42.667 23.893 0 42.667 18.773 42.667 42.667s-18.773 42.667-42.667 42.667c-23.893 0-42.667-18.774-42.667-42.667zm42.667 59.733c8.083 0 15.758-1.572 22.755-4.412a59.182 59.182 0 00-14.222 16.058 59.158 59.158 0 00-9.207-11.663c.226.003.448.017.674.017zM17.067 358.4c0-23.893 18.773-42.667 42.667-42.667S102.4 334.507 102.4 358.4s-18.773 42.667-42.667 42.667-42.666-18.774-42.666-42.667zm84.677 42.667a59.162 59.162 0 009.189-11.646 59.2 59.2 0 009.189 11.646h-18.378zm102.4 0a59.162 59.162 0 009.189-11.646 59.2 59.2 0 009.189 11.646h-18.378zm248.123 0H306.544A59.109 59.109 0 00318.615 384h31.251c5.12 0 8.533-3.413 8.533-8.533s-3.413-8.533-8.533-8.533h-26.202c.11-.785.216-1.572.296-2.369.013-.134.018-.272.031-.406.081-.875.154-1.754.198-2.645a61.771 61.771 0 000-6.226 60.231 60.231 0 00-.198-2.645c-.013-.135-.017-.272-.031-.406a60.55 60.55 0 00-.296-2.369h43.269c5.12 0 8.533-3.413 8.533-8.533s-3.413-8.533-8.533-8.533h-48.318a59.174 59.174 0 00-12.071-17.067h145.722c14.218 0 26.621 6.649 34.336 17.067h-42.87c-5.12 0-8.533 3.413-8.533 8.533s3.413 8.533 8.533 8.533h50.375c.54 2.751.825 5.603.825 8.533s-.286 5.782-.825 8.533h-16.241c-5.12 0-8.533 3.413-8.533 8.533s3.413 8.533 8.533 8.533h8.736c-7.714 10.418-20.118 17.067-34.335 17.067z"/></svg>