<?xml version="1.0"?>
<svg xmlns="http://www.w3.org/2000/svg" xmlns:xlink="http://www.w3.org/1999/xlink" viewBox="0 0 512 512" width="512" height="512"><defs><linearGradient id="linear-gradient" x1="105.856" y1="442.144" x2="410.144" y2="137.856" gradientUnits="userSpaceOnUse"><stop offset="0" stop-color="#ffb1b4"/><stop offset="0.033" stop-color="#f587a1"/><stop offset="1" stop-color="#f5b02e"/></linearGradient></defs><g id="gradient"><path d="M184,192c0,22.055-14.352,40-32,40a26.564,26.564,0,0,1-11.414-2.586,8,8,0,0,1,6.828-14.469A10.679,10.679,0,0,0,152,216c8.672,0,16-10.992,16-24a33.826,33.826,0,0,0-.617-6.488,8,8,0,0,1,15.719-3.024A50.837,50.837,0,0,1,184,192Zm-32-24a10.679,10.679,0,0,1,4.586,1.055,8,8,0,0,0,6.828-14.469A26.564,26.564,0,0,0,152,152a8,8,0,0,0,0,16Zm-16,24a32.453,32.453,0,0,1,2.555-12.82,8,8,0,0,0-14.688-6.36A48.628,48.628,0,0,0,120,192a50.837,50.837,0,0,0,.9,9.512A8.012,8.012,0,0,0,128.75,208a8.132,8.132,0,0,0,1.523-.145,8.008,8.008,0,0,0,6.344-9.367A33.826,33.826,0,0,1,136,192ZM112,320a50.837,50.837,0,0,0-.9-9.512,8,8,0,0,0-15.719,3.024A33.826,33.826,0,0,1,96,320c0,13.008-7.328,24-16,24a10.679,10.679,0,0,1-4.586-1.055,8,8,0,0,0-6.828,14.469A26.564,26.564,0,0,0,80,360C97.648,360,112,342.055,112,320ZM80,296a10.679,10.679,0,0,1,4.586,1.055,8,8,0,0,0,6.828-14.469A26.564,26.564,0,0,0,80,280a8,8,0,0,0,0,16ZM64,320a32.453,32.453,0,0,1,2.555-12.82,8,8,0,0,0-14.688-6.36A48.628,48.628,0,0,0,48,320a50.837,50.837,0,0,0,.9,9.512A8.012,8.012,0,0,0,56.75,336a8.132,8.132,0,0,0,1.523-.145,8.008,8.008,0,0,0,6.344-9.367A33.826,33.826,0,0,1,64,320Zm176,0c0,13.008-7.328,24-16,24a10.679,10.679,0,0,1-4.586-1.055,8,8,0,0,0-6.828,14.469A26.564,26.564,0,0,0,224,360c17.648,0,32-17.945,32-40a50.837,50.837,0,0,0-.9-9.512,8,8,0,0,0-15.719,3.024A33.826,33.826,0,0,1,240,320Zm-16-24a10.679,10.679,0,0,1,4.586,1.055,8,8,0,0,0,6.828-14.469A26.564,26.564,0,0,0,224,280a8,8,0,0,0,0,16Zm-31.1,33.512A8.012,8.012,0,0,0,200.75,336a8.132,8.132,0,0,0,1.523-.145,8.008,8.008,0,0,0,6.344-9.367A33.826,33.826,0,0,1,208,320a32.453,32.453,0,0,1,2.555-12.82,8,8,0,0,0-14.688-6.36A48.628,48.628,0,0,0,192,320,50.837,50.837,0,0,0,192.9,329.512ZM496,320c0,39.7-28.711,72-64,72H80c-35.289,0-64-32.3-64-72s28.711-72,64-72h31.863C97.33,234.79,88,214.607,88,192c0-39.7,28.711-72,64-72H368c35.289,0,64,32.3,64,72,0,22.607-9.33,42.79-23.863,56H432C467.289,248,496,280.3,496,320ZM192.137,136a70.151,70.151,0,0,1,13.04,16H240a8,8,0,0,1,0,16H212.266a78.931,78.931,0,0,1,3.315,16H304a8,8,0,0,1,0,16H215.581a78.931,78.931,0,0,1-3.315,16H240a8,8,0,0,1,0,16H205.177a70.151,70.151,0,0,1-13.04,16H368c13.042,0,24.87-6.118,33.529-16H320a8,8,0,0,1,0-16h91.3a62.507,62.507,0,0,0,4.15-16H384a8,8,0,0,1,0-16h31.453a62.507,62.507,0,0,0-4.15-16H320a8,8,0,0,1,0-16h81.529c-8.659-9.882-20.487-16-33.529-16ZM224,264c-26.469,0-48,25.121-48,56s21.531,56,48,56,48-25.121,48-56S250.469,264,224,264Zm-63.581,48a78.931,78.931,0,0,1,3.315-16H140.266a78.931,78.931,0,0,1,3.315,16ZM152,248c26.469,0,48-25.121,48-56s-21.531-56-48-56-48,25.121-48,56S125.531,248,152,248Zm-31.863,16a70.151,70.151,0,0,1,13.04,16h37.646a70.151,70.151,0,0,1,13.04-16ZM80,376c26.469,0,48-25.121,48-56s-21.531-56-48-56-48,25.121-48,56S53.531,376,80,376Zm103.863,0c-12.793-11.628-21.532-28.664-23.444-48H143.581a78.931,78.931,0,0,1-3.315,16H152a8,8,0,0,1,0,16H133.177a70.151,70.151,0,0,1-13.04,16Zm281.666-16H408a8,8,0,0,1,0-16h67.3a62.507,62.507,0,0,0,4.15-16H440a8,8,0,0,1,0-16h39.453a62.507,62.507,0,0,0-4.15-16H400a8,8,0,0,1,0-16h65.529c-8.659-9.882-20.487-16-33.529-16H264.137a70.151,70.151,0,0,1,13.04,16H320a8,8,0,0,1,0,16H284.266a78.931,78.931,0,0,1,3.315,16H360a8,8,0,0,1,0,16H287.581a78.931,78.931,0,0,1-3.315,16H328a8,8,0,0,1,0,16H277.177a70.151,70.151,0,0,1-13.04,16H432C445.042,376,456.87,369.882,465.529,360ZM288,216H272a8,8,0,0,0,0,16h16a8,8,0,0,0,0-16Zm-16-48h16a8,8,0,0,0,0-16H272a8,8,0,0,0,0,16Zm64,32h16a8,8,0,0,0,0-16H336a8,8,0,0,0,0,16Zm40,144H360a8,8,0,0,0,0,16h16a8,8,0,0,0,0-16Zm0-56a8,8,0,0,0-8-8H352a8,8,0,0,0,0,16h16A8,8,0,0,0,376,288Zm40,32a8,8,0,0,0-8-8H392a8,8,0,0,0,0,16h16A8,8,0,0,0,416,320ZM264,88H248v16h16Zm-32,0H216v16h16Zm88,0H280v16h40Z" style="fill:url(#linear-gradient)"/></g></svg>
