<svg xmlns="http://www.w3.org/2000/svg" viewBox="0 0 512 512" width="512" height="512"><path d="M183.1 182.488a8 8 0 00-15.719 3.024A33.826 33.826 0 01168 192c0 13.008-7.328 24-16 24a10.679 10.679 0 01-4.586-1.055 8 8 0 00-6.828 14.469A26.564 26.564 0 00152 232c17.648 0 32-17.945 32-40a50.837 50.837 0 00-.9-9.512zM152 168a10.679 10.679 0 014.586 1.055 8 8 0 006.828-14.469A26.564 26.564 0 00152 152a8 8 0 000 16zm-16 24a32.453 32.453 0 012.555-12.82 8 8 0 00-14.688-6.36A48.628 48.628 0 00120 192a50.837 50.837 0 00.9 9.512 8.012 8.012 0 007.85 6.488 8.132 8.132 0 001.523-.145 8.008 8.008 0 006.344-9.367A33.826 33.826 0 01136 192zm-24 128a50.837 50.837 0 00-.9-9.512 8 8 0 00-15.719 3.024A33.826 33.826 0 0196 320c0 13.008-7.328 24-16 24a10.679 10.679 0 01-4.586-1.055 8 8 0 00-6.828 14.469A26.564 26.564 0 0080 360c17.648 0 32-17.945 32-40zm-32-24a10.679 10.679 0 014.586 1.055 8 8 0 006.828-14.469A26.564 26.564 0 0080 280a8 8 0 000 16zm-16 24a32.453 32.453 0 012.555-12.82 8 8 0 00-14.688-6.36A48.628 48.628 0 0048 320a50.837 50.837 0 00.9 9.512A8.012 8.012 0 0056.75 336a8.132 8.132 0 001.523-.145 8.008 8.008 0 006.344-9.367A33.826 33.826 0 0164 320zm176 0c0 13.008-7.328 24-16 24a10.679 10.679 0 01-4.586-1.055 8 8 0 00-6.828 14.469A26.564 26.564 0 00224 360c17.648 0 32-17.945 32-40a50.837 50.837 0 00-.9-9.512 8 8 0 00-15.719 3.024A33.826 33.826 0 01240 320zm-16-24a10.679 10.679 0 014.586 1.055 8 8 0 006.828-14.469A26.564 26.564 0 00224 280a8 8 0 000 16zm-31.1 33.512a8.012 8.012 0 007.85 6.488 8.132 8.132 0 001.523-.145 8.008 8.008 0 006.344-9.367A33.826 33.826 0 01208 320a32.453 32.453 0 012.555-12.82 8 8 0 00-14.688-6.36A48.628 48.628 0 00192 320a50.837 50.837 0 00.9 9.512z"/><path d="M432 248h-23.863C422.67 234.79 432 214.607 432 192c0-39.7-28.711-72-64-72H152c-35.289 0-64 32.3-64 72 0 22.607 9.33 42.79 23.863 56H80c-35.289 0-64 32.3-64 72s28.711 72 64 72h352c35.289 0 64-32.3 64-72s-28.711-72-64-72zm-64-112c13.042 0 24.87 6.118 33.529 16H320a8 8 0 000 16h91.3a62.507 62.507 0 014.15 16H384a8 8 0 000 16h31.453a62.507 62.507 0 01-4.15 16H320a8 8 0 000 16h81.529c-8.659 9.882-20.487 16-33.529 16H192.137a70.151 70.151 0 0013.04-16H240a8 8 0 000-16h-27.734a78.931 78.931 0 003.315-16H304a8 8 0 000-16h-88.419a78.931 78.931 0 00-3.315-16H240a8 8 0 000-16h-34.823a70.151 70.151 0 00-13.04-16zm-96 184c0 30.879-21.531 56-48 56s-48-25.121-48-56 21.531-56 48-56 48 25.121 48 56zm-128.419-8a78.931 78.931 0 00-3.315-16h23.468a78.931 78.931 0 00-3.315 16zM104 192c0-30.879 21.531-56 48-56s48 25.121 48 56-21.531 56-48 56-48-25.121-48-56zm79.863 72a70.151 70.151 0 00-13.04 16h-37.646a70.151 70.151 0 00-13.04-16zM32 320c0-30.879 21.531-56 48-56s48 25.121 48 56-21.531 56-48 56-48-25.121-48-56zm88.137 56a70.151 70.151 0 0013.04-16H152a8 8 0 000-16h-11.734a78.931 78.931 0 003.315-16h16.838c1.912 19.336 10.651 36.372 23.444 48zM432 376H264.137a70.151 70.151 0 0013.04-16H328a8 8 0 000-16h-43.734a78.931 78.931 0 003.315-16H360a8 8 0 000-16h-72.419a78.931 78.931 0 00-3.315-16H320a8 8 0 000-16h-42.823a70.151 70.151 0 00-13.04-16H432c13.042 0 24.87 6.118 33.529 16H400a8 8 0 000 16h75.3a62.507 62.507 0 014.15 16H440a8 8 0 000 16h39.453a62.507 62.507 0 01-4.15 16H408a8 8 0 000 16h57.529c-8.659 9.882-20.487 16-33.529 16z"/><path d="M288 216h-16a8 8 0 000 16h16a8 8 0 000-16zm-16-48h16a8 8 0 000-16h-16a8 8 0 000 16zm64 32h16a8 8 0 000-16h-16a8 8 0 000 16zm40 144h-16a8 8 0 000 16h16a8 8 0 000-16zm0-56a8 8 0 00-8-8h-16a8 8 0 000 16h16a8 8 0 008-8zm40 32a8 8 0 00-8-8h-16a8 8 0 000 16h16a8 8 0 008-8zM248 88h16v16h-16zm-32 0h16v16h-16zm64 0h40v16h-40z"/></svg>