<svg xmlns="http://www.w3.org/2000/svg" viewBox="0 0 512 512" width="512" height="512"><defs><linearGradient id="a" x1="105.856" y1="442.144" x2="410.144" y2="137.856" gradientUnits="userSpaceOnUse"><stop offset="0" stop-color="#ffb1b4"/><stop offset=".033" stop-color="#f587a1"/><stop offset="1" stop-color="#f5b02e"/></linearGradient></defs><path d="M184 192c0 22.055-14.352 40-32 40a26.564 26.564 0 01-11.414-2.586 8 8 0 016.828-14.469A10.679 10.679 0 00152 216c8.672 0 16-10.992 16-24a33.826 33.826 0 00-.617-6.488 8 8 0 0115.719-3.024A50.837 50.837 0 01184 192zm-32-24a10.679 10.679 0 014.586 1.055 8 8 0 006.828-14.469A26.564 26.564 0 00152 152a8 8 0 000 16zm-16 24a32.453 32.453 0 012.555-12.82 8 8 0 00-14.688-6.36A48.628 48.628 0 00120 192a50.837 50.837 0 00.9 9.512 8.012 8.012 0 007.85 6.488 8.132 8.132 0 001.523-.145 8.008 8.008 0 006.344-9.367A33.826 33.826 0 01136 192zm-24 128a50.837 50.837 0 00-.9-9.512 8 8 0 00-15.719 3.024A33.826 33.826 0 0196 320c0 13.008-7.328 24-16 24a10.679 10.679 0 01-4.586-1.055 8 8 0 00-6.828 14.469A26.564 26.564 0 0080 360c17.648 0 32-17.945 32-40zm-32-24a10.679 10.679 0 014.586 1.055 8 8 0 006.828-14.469A26.564 26.564 0 0080 280a8 8 0 000 16zm-16 24a32.453 32.453 0 012.555-12.82 8 8 0 00-14.688-6.36A48.628 48.628 0 0048 320a50.837 50.837 0 00.9 9.512A8.012 8.012 0 0056.75 336a8.132 8.132 0 001.523-.145 8.008 8.008 0 006.344-9.367A33.826 33.826 0 0164 320zm176 0c0 13.008-7.328 24-16 24a10.679 10.679 0 01-4.586-1.055 8 8 0 00-6.828 14.469A26.564 26.564 0 00224 360c17.648 0 32-17.945 32-40a50.837 50.837 0 00-.9-9.512 8 8 0 00-15.719 3.024A33.826 33.826 0 01240 320zm-16-24a10.679 10.679 0 014.586 1.055 8 8 0 006.828-14.469A26.564 26.564 0 00224 280a8 8 0 000 16zm-31.1 33.512a8.012 8.012 0 007.85 6.488 8.132 8.132 0 001.523-.145 8.008 8.008 0 006.344-9.367A33.826 33.826 0 01208 320a32.453 32.453 0 012.555-12.82 8 8 0 00-14.688-6.36A48.628 48.628 0 00192 320a50.837 50.837 0 00.9 9.512zM496 320c0 39.7-28.711 72-64 72H80c-35.289 0-64-32.3-64-72s28.711-72 64-72h31.863C97.33 234.79 88 214.607 88 192c0-39.7 28.711-72 64-72h216c35.289 0 64 32.3 64 72 0 22.607-9.33 42.79-23.863 56H432c35.289 0 64 32.3 64 72zM192.137 136a70.151 70.151 0 0113.04 16H240a8 8 0 010 16h-27.734a78.931 78.931 0 013.315 16H304a8 8 0 010 16h-88.419a78.931 78.931 0 01-3.315 16H240a8 8 0 010 16h-34.823a70.151 70.151 0 01-13.04 16H368c13.042 0 24.87-6.118 33.529-16H320a8 8 0 010-16h91.3a62.507 62.507 0 004.15-16H384a8 8 0 010-16h31.453a62.507 62.507 0 00-4.15-16H320a8 8 0 010-16h81.529c-8.659-9.882-20.487-16-33.529-16zM224 264c-26.469 0-48 25.121-48 56s21.531 56 48 56 48-25.121 48-56-21.531-56-48-56zm-63.581 48a78.931 78.931 0 013.315-16h-23.468a78.931 78.931 0 013.315 16zM152 248c26.469 0 48-25.121 48-56s-21.531-56-48-56-48 25.121-48 56 21.531 56 48 56zm-31.863 16a70.151 70.151 0 0113.04 16h37.646a70.151 70.151 0 0113.04-16zM80 376c26.469 0 48-25.121 48-56s-21.531-56-48-56-48 25.121-48 56 21.531 56 48 56zm103.863 0c-12.793-11.628-21.532-28.664-23.444-48h-16.838a78.931 78.931 0 01-3.315 16H152a8 8 0 010 16h-18.823a70.151 70.151 0 01-13.04 16zm281.666-16H408a8 8 0 010-16h67.3a62.507 62.507 0 004.15-16H440a8 8 0 010-16h39.453a62.507 62.507 0 00-4.15-16H400a8 8 0 010-16h65.529c-8.659-9.882-20.487-16-33.529-16H264.137a70.151 70.151 0 0113.04 16H320a8 8 0 010 16h-35.734a78.931 78.931 0 013.315 16H360a8 8 0 010 16h-72.419a78.931 78.931 0 01-3.315 16H328a8 8 0 010 16h-50.823a70.151 70.151 0 01-13.04 16H432c13.042 0 24.87-6.118 33.529-16zM288 216h-16a8 8 0 000 16h16a8 8 0 000-16zm-16-48h16a8 8 0 000-16h-16a8 8 0 000 16zm64 32h16a8 8 0 000-16h-16a8 8 0 000 16zm40 144h-16a8 8 0 000 16h16a8 8 0 000-16zm0-56a8 8 0 00-8-8h-16a8 8 0 000 16h16a8 8 0 008-8zm40 32a8 8 0 00-8-8h-16a8 8 0 000 16h16a8 8 0 008-8zM264 88h-16v16h16zm-32 0h-16v16h16zm88 0h-40v16h40z" fill="url(#a)"/></svg>